<svg width="100%" viewBox="0 0 680 350">
  <g transform="translate(340, 160)">
    <!-- Snake body forming a stylized B -->
    <path d="M-60,-100 C-60,-100 -60,-120 -40,-120 L20,-120 C55,-120 75,-100 75,-75 C75,-50 55,-30 25,-30 L-20,-30 C-20,-30 25,-30 55,-30 C85,-30 105,-5 105,25 C105,55 85,80 50,80 L-40,80 C-60,80 -60,60 -60,60 L-60,-100Z" fill="none" stroke="#1B2A4A" stroke-width="12" stroke-linecap="round" stroke-linejoin="round"/>
    <!-- Snake head detail -->
    <circle cx="-60" cy="-100" r="8" fill="#2E8B57"/>
    <circle cx="-56" cy="-104" r="2.5" fill="#1B2A4A"/>
    <!-- Tongue -->
    <path d="M-68,-100 L-82,-108 M-68,-100 L-82,-92" stroke="#2E8B57" stroke-width="2.5" stroke-linecap="round" fill="none"/>
    <!-- Scale pattern accents -->
    <circle cx="20" cy="-75" r="3" fill="#2E8B57" opacity="0.4"/>
    <circle cx="50" cy="-75" r="3" fill="#2E8B57" opacity="0.3"/>
    <circle cx="40" cy="25" r="3" fill="#2E8B57" opacity="0.4"/>
    <circle cx="70" cy="25" r="3" fill="#2E8B57" opacity="0.3"/>
  </g>
  <!-- Wordmark -->
  <text x="340" y="310" text-anchor="middle" font-family="Arial, Helvetica, sans-serif" font-size="36" font-weight="500" letter-spacing="12" fill="#1B2A4A">BASILISK</text>
</svg>